<?xml version="1.0" encoding="UTF-8" standalone="no"?>
<!-- Created with Inkscape (http://www.inkscape.org/) -->

<svg
   width="100"
   height="100"
   viewBox="0 0 26.458333 26.458333"
   version="1.1"
   id="svg1"
   xmlns="http://www.w3.org/2000/svg"
   xmlns:svg="http://www.w3.org/2000/svg">
  <defs
     id="defs1" />
  <g
     id="layer1"
     style="display:none">
    <path
       style="fill:none;stroke:#000000;stroke-width:2.64583;stroke-linecap:round;stroke-dasharray:none"
       d="M 1.616077,1.6241993 24.709963,24.834131"
       id="path1" />
    <path
       style="fill:none;stroke:#000000;stroke-width:2.64583;stroke-linecap:round;stroke-dasharray:none"
       d="M 24.709963,1.6241993 1.616077,24.834131"
       id="path2" />
  </g>
  <g
     id="layer2"
     style="display:inline">
    <path
       style="fill:none;stroke:#ffffff;stroke-width:2.64583;stroke-linecap:round;stroke-dasharray:none"
       d="M 16.057537,13.188137 1.6160776,13.270197"
       id="path3" />
    <path
       style="fill:none;stroke:#ffffff;stroke-width:2.64583;stroke-linecap:round;stroke-dasharray:none"
       d="M 22.388425,20.87988 1.6160776,20.96194"
       id="path4" />
    <path
       style="fill:none;stroke:#ffffff;stroke-width:2.64583;stroke-linecap:round;stroke-dasharray:none"
       d="M 24.769673,5.3347536 1.6160776,5.3313174"
       id="path6" />
  </g>
  <g
     id="layer3"
     style="display:none">
    <path
       fill-rule="evenodd"
       clip-rule="evenodd"
       d="m 0.06614671,5.2426429 c 0,-0.7269669 0.58932873,-1.3163005 1.31630049,-1.3163005 H 25.075885 c 0.726992,0 1.316301,0.5893336 1.316301,1.3163005 0,0.7269969 -0.589309,1.3163055 -1.316301,1.3163055 H 1.3824472 c -0.72697176,0 -1.31630049,-0.5893086 -1.31630049,-1.3163055 z m 0,7.8978131 c 0,-0.726992 0.58932873,-1.316301 1.31630049,-1.316301 H 15.861772 c 0.726992,0 1.3163,0.589309 1.3163,1.316301 0,0.726996 -0.589308,1.316306 -1.3163,1.316306 H 1.3824472 c -0.72697176,0 -1.31630049,-0.58931 -1.31630049,-1.316306 z m 1.31630049,6.581512 c -0.72697176,0 -1.31630049,0.589309 -1.31630049,1.316301 0,0.726996 0.58932873,1.316306 1.31630049,1.316306 H 22.44328 c 0.726996,0 1.3163,-0.58931 1.3163,-1.316306 0,-0.726992 -0.589304,-1.316301 -1.3163,-1.316301 z"
       fill="#ffffff"
       id="path5"
       style="display:none;fill:#00ff00;stroke-width:1.3163" />
  </g>
</svg>
